PathFileType	4	(X/Y/Z)	C:/Users/beibeiliu/ov580/test_trc/User3\sequence.23_training_dense_right.trc
DataRate	CameraRate	NumFrames	NumMarkers	Units	OrigDataRate	OrigDataStartFrame	OrigNumFrames
120	120	18	19	mm	120	1	91
Frame#	Time	ThumbCMC			ThumbMCP			ThumbIP			ThumbTip			IndexMCP			IndexPIP			IndexTip			MiddleMCP			MiddlePIP			MiddleTip			RingMCP			RingPIP			RingTip			PinkyMCP			PinkyPIP			PinkyTip			BackHand1			BackHand2			BackHand3	
		X0	Y0	Z0	X1	Y1	Z1	X2	Y2	Z2	X3	Y3	Z3	X4	Y4	Z4	X5	Y5	Z5	X6	Y6	Z6	X7	Y7	Z7	X8	Y8	Z8	X9	Y9	Z9	X10	Y10	Z10	X11	Y11	Z11	X12	Y12	Z12	X13	Y13	Z13	X14	Y14	Z14	X15	Y15	Z15	X16	Y16	Z16	X17	Y17	Z17	X18	Y18	Z18	
0	0	59.258	-10.263	19.0762	34.3914	-9.40208	-7.7451	23.5875	-8.36089	-37.0657	24.7719	-11.8874	-61.6494	64.1642	26.1758	-48.497	46.1695	9.45537	-73.5742	34.6263	-16.0188	-74.528	94.0108	28.9967	-55.1005	81.8521	35.7811	-82.4484	70.3942	29.6111	-114.046	109.422	16.8495	-52.2944	107.783	26.678	-77.945	104.954	29.3537	-106.475	125.506	-6.12896	-46.2741	133.731	-2.12701	-67.6824	140.644	-0.396793	-87.909	117.235	1.08277	-4.0733	121.283	-9.75577	24.9896	91.1083	9.36282	19.0061	
1	0.00833333	57.2808	-7.53178	14.8128	38.359	-10.4425	-6.85598	25.1775	-7.83429	-38.1338	20.5958	-12.7237	-60.5949	64.802	25.3059	-48.4832	44.5287	11.314	-73.5802	37.6985	-19.3383	-75.0576	91.2102	29.1029	-53.4303	80.4672	35.4614	-86.2298	69.7076	29.7794	-115.865	107.541	18.2876	-53.7904	112.016	22.6123	-76.8403	103.989	28.7709	-105.91	124.568	-7.58393	-46.1045	134.195	-3.07055	-69.1348	136.816	0.785887	-91.5574	116.812	-0.0436574	-4.53051	121.067	-11.2999	23.7057	91.293	11.5275	16.4094	
2	0.0166667	57.7294	-9.41423	19.8964	40.2135	-9.96525	-9.23728	24.8379	-7.87884	-37.1111	24.8345	-11.8915	-60.4958	67.0347	24.7974	-49.0254	46.9117	14.4787	-71.4838	39.0944	-15.8202	-76.1275	92.4773	29.9526	-58.2065	82.5019	34.8232	-85.7196	71.2476	28.3044	-117.117	111.689	14.8089	-53.655	110.134	22.7276	-75.793	106.226	25.929	-105.098	126.619	-7.72051	-46.7697	134.339	-6.81926	-67.2793	138.517	-2.73708	-87.8906	119.178	-1.062	-5.75153	125.417	-12.0682	20.699	95.1849	9.63587	17.3568	
3	0.025	58.2594	-7.84151	17.8052	39.0069	-10.1377	-6.19444	26.9847	-7.35098	-37.857	23.9902	-12.2386	-61.6358	67.7969	25.4861	-46.396	47.6698	10.8105	-72.8055	40.9924	-17.2777	-76.4391	98.4219	27.3385	-56.8134	87.7291	32.6976	-87.4193	75.6438	26.2075	-115.344	112.857	16.772	-53.2387	113.391	23.743	-79.2087	106.988	25.9098	-104.937	127.679	-9.32108	-45.3219	134.714	-7.66468	-64.8105	141.327	-4.03866	-91.4385	119.23	0.972914	-3.98375	124.628	-14.9124	23.267	93.0592	11.66	15.2258	
4	0.0333333	58.5938	-6.7314	17.8577	41.3487	-10.2787	-6.35925	27.5101	-7.91051	-35.4986	26.1601	-12.7567	-61.0869	69.3086	24.0993	-49.8719	49.5861	13.0189	-71.4426	42.0762	-16.9416	-76.0231	96.1251	27.1138	-51.7515	86.8587	31.821	-86.0234	75.0361	27.5853	-112.635	112.923	12.188	-48.9314	111.899	23.5487	-78.4128	108.619	25.5577	-105.843	128.931	-13.2911	-43.0013	137.129	-7.33925	-68.282	141.497	-6.86888	-91.4109	120.373	-2.41201	-0.942912	128.989	-15.4863	23.8739	98.8523	6.85932	18.0179	
5	0.0416667	59.2827	-8.35672	16.9199	43.7441	-12.0664	-6.88552	29.7754	-11.5956	-31.6009	26.5294	-14.5238	-57.2345	67.1655	22.7262	-47.0358	52.9028	7.88287	-72.8069	36.1944	-19.9917	-73.5262	98.5633	24.0364	-52.6492	91.0026	29.1934	-83.2656	76.1191	25.9339	-110.735	112.749	13.0754	-51.0722	115.901	19.4846	-75.8121	108.133	22.7422	-101.153	131.423	-13.8602	-45.2571	135.824	-9.38815	-63.9934	144.636	-8.49562	-91.3697	123.656	-5.30267	-4.2101	126.013	-15.2072	22.2585	98.5467	7.39879	14.9679	
6	0.05	60.5697	-10.1629	17.4989	39.3601	-10.9913	-4.99127	24.9088	-9.28594	-34.0226	22.5014	-14.6748	-58.0751	67.6494	21.8551	-47.4865	47.4396	8.64059	-71.0076	40.8901	-20.3783	-75.39	95.8792	25.6566	-52.6583	88.4636	29.4691	-82.5486	75.6096	24.3428	-112.587	115.993	11.1432	-51.5846	116.013	18.3	-76.1332	110.656	20.7315	-102.026	127.931	-14.1021	-42.527	138.208	-12.3032	-66.5484	143.751	-9.26758	-91.3015	120.736	-4.04185	-0.00635637	123.314	-15.424	25.218	95.6285	7.41313	16.2132	
7	0.0583333	58.9159	-10.8476	21.1874	39.2183	-10.5695	-5.78761	25.7664	-9.74655	-33.5735	23.4065	-13.6728	-60.1252	65.7044	23.3421	-48.1225	49.6556	5.91702	-72.9649	38.0007	-22.679	-74.6811	96.6216	24.8015	-55.7526	87.561	29.0658	-84.7903	75.937	21.649	-117.683	115.549	10.5831	-53.4409	115.956	17.8319	-78.3215	108.105	22.5113	-101.781	127.833	-14.4527	-41.6795	135.441	-10.917	-63.1007	145.039	-9.18113	-88.2481	120.324	-0.547106	-3.91305	124.055	-15.1083	26.6096	93.7665	8.52277	19.2051	
8	0.0666667	61.2728	-9.40941	15.218	39.1951	-10.8187	-6.50047	27.6388	-10.3831	-32.7396	22.8463	-14.4831	-58.7427	66.8278	22.5227	-50.4449	48.6229	9.0929	-73.4715	39.9909	-17.7046	-76.6287	97.4986	25.027	-55.3669	87.4342	28.9275	-87.9218	75.2432	23.9989	-112.205	113.039	11.1417	-49.5636	113.403	18.996	-75.519	108.891	22.4879	-105.965	129.435	-13.6547	-43.9885	134.643	-9.27986	-66.5342	144.271	-11.4568	-87.0708	123.827	-2.92556	-4.37517	126.365	-15.2878	21.9563	96.2521	6.22373	17.8043	
9	0.075	59.147	-8.81593	19.6577	38.9949	-10.4482	-8.08649	26.2003	-9.07933	-33.4334	23.2631	-12.315	-61.1623	68.7887	23.9423	-51.331	48.5194	13.5642	-71.2817	38.8956	-18.3871	-75.7088	94.3922	29.3237	-56.9216	86.699	31.0136	-87.761	73.633	26.5464	-113.184	113.794	12.1189	-50.3224	112.427	21.1407	-75.5986	107.421	24.1509	-104.243	130.938	-13.714	-45.1198	135.466	-8.72219	-66.6957	141.315	-5.28295	-88.3549	118.082	-2.58442	-2.43187	125.571	-14.4589	20.0878	98.6025	7.45586	18.0665	
10	0.0833333	61.7039	-8.21374	16.0069	37.4927	-8.21493	-9.91263	23.4968	-8.79125	-35.7607	24.6783	-13.099	-62.5253	67.8261	25.3929	-47.3193	46.5149	11.1631	-73.2628	40.9281	-15.6563	-78.6028	96.0711	26.9534	-57.5227	90.1071	30.5309	-85.3132	74.905	24.8567	-114.214	114.854	13.2816	-54.3219	113.494	21.077	-77.1712	107.565	23.851	-104.644	130.543	-14.5634	-46.3906	134.455	-8.59539	-67.281	141.361	-4.81967	-92.2953	118.638	-3.3495	-1.46784	125.446	-14.498	23.9341	96.5526	5.74131	17.2508	
11	0.0916667	59.7936	-10.9016	19.5624	42.2073	-10.6316	-8.49663	25.4825	-8.48951	-39.2063	23.8641	-13.3416	-64.846	65.2877	24.4454	-49.5981	48.7744	10.6127	-74.6687	38.1355	-18.4674	-77.1653	93.945	25.9354	-54.3921	87.7731	30.1322	-86.9707	71.8627	26.0335	-114.688	113.907	12.6075	-53.7484	113.546	19.2126	-77.8629	105.176	23.2401	-106.774	127.074	-10.5306	-48.9375	135.256	-8.90294	-70.6309	141.072	-8.0283	-92.0153	120.35	-2.85178	-7.13212	124.15	-15.2298	21.6243	92.9546	8.65954	14.0484	
12	0.1	57.8101	-9.12467	18.7142	41.0168	-10.3227	-9.12173	26.4	-10.383	-34.5151	23.8112	-13.6071	-60.6252	64.3732	25.5047	-52.1768	49.2584	10.428	-75.1078	36.136	-13.8318	-76.834	93.3694	28.1202	-59.2488	87.9922	27.8802	-90.0443	73.9508	23.1924	-115.891	112.495	13.3167	-55.1034	113.792	19.0007	-81.9463	104.368	24.2483	-106.479	129.351	-12.1619	-48.6718	133.331	-8.49927	-69.4068	138.303	-6.34302	-92.0803	119.951	-1.0279	-5.19596	123.541	-15.265	20.2853	94.7144	8.77734	17.5193	
13	0.108333	61.6753	-9.43715	15.0375	40.2088	-10.6577	-10.1858	28.3747	-9.40368	-36.3573	23.6191	-14.3866	-59.6877	68.6916	22.7572	-50.9816	50.7568	9.7163	-76.0729	36.6229	-20.3594	-77.7734	98.379	23.8163	-56.9687	89.5288	28.3208	-86.5521	74.3289	22.1498	-118.861	115.155	11.9866	-56.8644	109.801	20.6484	-78.2819	107.511	21.6699	-104.083	129.766	-15.3096	-45.9775	135.035	-10.4125	-71.0622	137.873	-6.83356	-89.1005	119.247	-3.23098	-2.91504	124.128	-14.3204	19.3932	94.2684	9.16646	17.4482	
14	0.116667	59.9235	-10.0641	15.545	37.449	-11.668	-7.84772	27.4348	-10.3772	-35.9503	25.1532	-13.831	-64.8244	65.6766	22.9908	-53.6197	50.2102	6.03975	-76.3934	36.634	-18.9804	-77.2588	94.0095	24.5205	-57.3195	90.0371	26.5837	-85.7201	73.7262	21.4706	-117.176	115.652	9.00546	-55.5784	112.508	18.4733	-82.2309	105.675	20.9425	-108.326	128.237	-16.0773	-45.9953	137.374	-13.9784	-66.8584	140.848	-8.58239	-92.0966	121.91	-5.84196	-4.98347	123.046	-14.7678	22.293	94.0943	7.5152	13.3121	
15	0.125	58.708	-9.29508	15.8877	39.8132	-12.5794	-8.80557	26.0629	-11.3666	-35.2092	25.0843	-15.8488	-60.6459	65.5633	22.118	-52.5457	47.5441	5.73463	-75.2395	35.2996	-20.0232	-77.0413	94.9345	23.7351	-59.5789	85.0272	27.6025	-88.3971	72.6492	22.2611	-115.343	111.659	10.8298	-55.0667	115.766	14.8891	-78.7504	108.35	18.2999	-107.663	129.219	-16.8097	-46.4181	136.32	-14.7826	-67.465	140.83	-10.1669	-90.4959	123.773	-6.74795	-3.92568	126.92	-16.0582	19.6416	94.8131	5.02041	16.3971	
16	0.133333	62.1542	-11.2926	15.6211	38.7039	-11.6042	-9.79718	28.8528	-10.6571	-39.0506	25.6888	-16.2144	-63.3231	65.5402	22.1798	-53.5787	46.8083	8.10344	-74.4984	38.1503	-22.4656	-78.5684	95.7304	24.0441	-56.2555	87.0027	27.8541	-86.1407	77.3807	19.5464	-115.889	112.409	8.03424	-51.8442	112.716	16.4431	-81.5772	106.657	19.4002	-108.795	129.339	-18.2501	-44.702	135.111	-13.3048	-70.8466	140.396	-10.3714	-93.0048	122.511	-5.75593	-3.38958	127.255	-17.2044	22.5228	96.1456	4.09857	16.4247	
17	0.141667	59.6714	-8.46037	14.8213	41.6835	-11.608	-13.0452	25.3783	-11.5755	-35.9977	23.8743	-15.9451	-60.6248	68.0312	21.9334	-54.9725	49.886	7.81604	-76.561	38.8514	-19.0918	-78.4625	97.6045	23.4141	-60.4047	88.34	26.8818	-90.2824	73.2128	21.847	-117.318	111.984	10.8717	-54.736	114.105	15.8423	-84.3206	105.884	19.4408	-106.781	128.642	-14.6585	-48.607	135.837	-13.4848	-71.6893	144.236	-13.1415	-91.1822	123.653	-5.74188	-4.5718	126.948	-17.3848	23.7083	93.858	6.36946	16.5606	
